<?xml version="1.0" encoding="UTF-8" standalone="no"?>
<svg
   version="1.1"
   id="Layer_1"
   x="0px"
   y="0px"
   width="100%"
   viewBox="0 0 1024 1024"
   enable-background="new 0 0 1024 1024"
   xml:space="preserve"
   sodipodi:docname="Tower SVG.svg"
   inkscape:version="1.4.3 (0d15f75, 2025-12-25)"
   xmlns:inkscape="http://www.inkscape.org/namespaces/inkscape"
   xmlns:sodipodi="http://sodipodi.sourceforge.net/DTD/sodipodi-0.dtd"
   xmlns="http://www.w3.org/2000/svg"
   xmlns:svg="http://www.w3.org/2000/svg"><defs
   id="defs16" /><sodipodi:namedview
   id="namedview16"
   pagecolor="#ffffff"
   bordercolor="#000000"
   borderopacity="0.25"
   inkscape:showpageshadow="2"
   inkscape:pageopacity="0.0"
   inkscape:pagecheckerboard="0"
   inkscape:deskcolor="#d1d1d1"
   inkscape:zoom="0.51934301"
   inkscape:cx="610.38658"
   inkscape:cy="465.97335"
   inkscape:window-width="1546"
   inkscape:window-height="909"
   inkscape:window-x="1059"
   inkscape:window-y="356"
   inkscape:window-maximized="0"
   inkscape:current-layer="Layer_1" />
<path
   fill="#000000"
   opacity="1.000000"
   stroke="none"
   d=" M425.438293,416.524872   C426.561707,399.953766 427.656677,383.848145 428.622772,367.734741   C428.851501,363.919708 430.525269,361.572418 434.154510,360.356689   C441.727997,357.819733 449.224823,355.052216 456.811951,352.558411   C462.311584,350.750732 464.791901,352.573334 465.421570,358.493713   C465.612305,360.286957 465.854126,362.074738 466.217926,365.056732   C470.446350,333.960114 474.508240,304.088409 478.544525,274.404907   C476.440338,272.477234 474.787933,273.916595 473.179901,274.477936   C463.129913,277.986542 453.123291,281.619720 443.064484,285.102509   C437.123108,287.159637 434.579803,285.833618 432.573151,279.709686   C430.448669,273.226288 428.354767,266.728271 426.475616,260.171234   C425.645172,257.273468 424.377136,256.246185 421.182129,256.556244   C414.431183,257.211304 407.942566,255.773132 401.838837,252.731766   C398.792755,251.213959 396.277405,249.092331 394.282532,246.340820   C390.551025,241.194061 391.802856,235.958984 397.448822,233.081100   C399.716888,231.924988 402.167786,231.363937 404.661163,231.235245   C406.998474,231.114594 408.119446,230.365479 408.570465,227.824127   C409.447815,222.880478 412.852509,220.925644 417.684662,222.281570   C419.420410,222.768631 421.016907,223.746750 422.683838,224.485138   C442.402100,233.219604 462.819550,235.095535 483.868103,230.689697   C484.485931,230.560379 485.053040,230.188828 485.564972,229.964752   C485.564972,229.463852 485.696899,229.002289 485.546082,228.874527   C476.125732,220.894806 475.155151,218.869110 481.733124,205.130386   C485.826813,196.580276 485.045837,189.501312 480.819092,181.779083   C478.187927,176.971924 476.008698,171.901886 473.877899,166.843964   C473.019104,164.805496 471.752045,162.371155 474.025574,160.363617   C476.163788,158.475616 478.380157,159.567657 480.547302,160.541092   C483.551788,161.890656 486.579773,163.187836 489.862152,164.623077   C491.939484,160.163116 491.838196,155.604858 492.821075,151.306030   C493.264832,149.365189 493.485474,147.171585 495.710175,146.396759   C498.157471,145.544388 499.328400,147.591263 500.566559,149.066605   C502.805267,151.734299 504.893402,154.528351 507.563660,157.931351   C511.199310,152.317688 511.014923,147.521683 513.428101,143.746170   C514.676086,141.793671 515.238159,139.217056 518.088135,139.126801   C520.849731,139.039322 521.868347,141.399551 523.281006,143.254486   C525.455750,146.109970 526.268860,149.932617 529.623962,152.382339   C531.814575,149.223404 533.798218,146.200577 535.959045,143.310242   C537.181763,141.674744 538.790039,140.285172 541.071960,141.058472   C543.438782,141.860596 544.276855,143.797409 544.269226,146.171585   C544.204468,166.228287 548.376709,185.811981 550.875000,205.583420   C551.482544,210.391342 551.655640,215.302673 550.790466,220.031540   C550.095520,223.830307 551.622131,225.018784 554.784363,225.985184   C566.875427,229.680283 579.041992,229.206345 591.343079,227.311218   C602.542053,225.585907 613.533020,223.680099 623.750916,218.130692   C630.184692,214.636429 632.450195,216.054581 635.594360,222.915146   C636.261719,224.371109 637.403748,224.746094 638.758606,224.939011   C640.901001,225.244064 643.072205,225.406693 645.184937,225.849960   C652.433655,227.370758 655.272583,234.101410 651.304993,240.365616   C646.847656,247.403061 639.773193,249.593628 632.076477,250.241669   C628.451233,250.546906 624.754944,250.574768 621.137146,249.664413   C617.354431,248.712570 615.619263,250.240952 615.265259,254.159241   C614.846985,258.787750 613.967346,263.376373 613.240967,267.974884   C612.233521,274.353241 609.700623,276.269562 603.235535,275.188721   C592.746216,273.435059 582.281860,271.530609 571.813538,269.653442   C565.592957,268.538025 564.799377,269.478851 565.783081,275.726532   C569.710571,300.670197 573.496155,325.636230 577.368103,350.588745   C577.847534,353.678314 578.529541,356.736450 579.301331,359.771301   C580.014771,351.129608 582.004333,349.809906 590.470276,352.496460   C596.010376,354.254578 601.534485,356.063232 607.075867,357.817139   C610.176453,358.798584 612.265503,360.429871 612.498047,364.065125   C613.336609,377.172455 614.344788,390.268890 615.273010,403.370544   C617.131165,429.596710 618.995728,455.822388 620.823425,482.050690   C621.691040,494.500824 622.443420,506.958984 623.313416,519.408936   C624.496155,536.333984 625.774536,553.252258 626.948853,570.177917   C627.800659,582.455811 628.708069,594.733948 629.248840,607.027039   C629.410095,610.692688 630.525330,612.124512 634.198853,611.988647   C638.857117,611.816528 643.530151,611.943298 648.194153,612.053162   C652.147583,612.146301 654.138184,614.061035 654.381470,618.234314   C655.978760,645.640198 657.354004,673.066284 659.498962,700.431091   C662.009216,732.456970 663.621338,764.526062 665.484497,796.587402   C667.328003,828.310364 669.889526,859.991394 672.107849,891.692810   C672.560669,898.164673 673.000305,904.641418 673.222473,911.123596   C673.322632,914.046448 672.782776,916.966309 668.944885,917.305115   C664.986816,917.654419 663.716309,915.302246 663.472351,911.818665   C662.949280,904.349487 662.283386,896.890198 661.770020,889.420471   C659.499512,856.382935 657.220154,823.345886 655.039185,790.302368   C654.403198,780.666321 653.934998,771.013306 653.681030,761.360474   C653.562805,756.863647 652.193787,754.818726 647.244507,754.847900   C599.418823,755.130432 551.592102,755.216064 503.765625,755.362183   C496.299988,755.385010 496.264679,755.395020 496.264771,762.708740   C496.265472,810.869141 496.282623,859.029541 496.294525,907.189941   C496.294769,908.189819 496.269562,909.190613 496.302704,910.189392   C496.418243,913.669373 495.635376,916.933167 491.588989,917.113464   C487.426880,917.298889 486.688171,914.025024 486.525055,910.560059   C485.356964,885.743225 486.196869,860.912842 486.012024,836.089783   C485.827148,811.261780 485.910828,786.430176 486.112213,761.602112   C486.150116,756.930969 484.466583,755.517212 479.989258,755.571289   C453.498199,755.891785 427.004761,756.021790 400.512146,756.212341   C394.129974,756.258240 393.773895,756.556519 393.387360,762.913940   C391.660461,791.314514 389.977142,819.717834 388.228638,848.117126   C386.940399,869.040405 385.569946,889.958740 384.250763,910.880188   C384.033356,914.328613 383.214417,917.381958 378.951202,917.264038   C374.753052,917.147888 373.681458,914.013672 373.863770,910.633789   C374.446167,899.836182 375.270050,889.051331 376.026581,878.263367   C376.898895,865.824219 377.818115,853.388306 378.682037,840.948608   C379.984467,822.194885 381.350250,803.444763 382.515320,784.682373   C383.681335,765.904785 384.524384,747.106995 385.707581,728.330566   C387.224579,704.257263 388.953766,680.197388 390.563568,656.129822   C391.307129,645.013123 392.107544,633.897949 392.645752,622.770630   C392.971893,616.026306 393.786102,614.934753 400.392639,614.585449   C412.048553,613.969177 412.058624,613.969727 412.803619,602.240723   C414.480713,575.838440 415.735260,549.401123 417.928680,523.041931   C420.302856,494.510620 422.073822,465.950043 423.940643,437.388489   C424.384460,430.598053 424.118164,423.728760 425.438293,416.524872  M447.500183,623.355042   C434.838165,623.390381 422.175934,623.393372 409.514221,623.474548   C402.978149,623.516479 402.445099,624.162781 402.216553,630.511169   C402.121124,633.162598 401.579987,635.795349 401.413330,638.447388   C399.233002,673.151367 397.134491,707.860596 394.843475,742.557251   C394.625275,745.862427 395.721100,746.734619 398.651031,746.607422   C403.807373,746.383728 408.967529,746.124573 414.126770,746.109619   C468.265320,745.952698 522.405579,746.083679 576.536133,744.847168   C583.714478,744.683228 583.796753,744.823486 583.686157,737.788269   C583.126160,702.158752 582.480225,666.530579 581.964417,630.900391   C581.848999,622.923279 582.033691,622.910278 573.951843,622.936646   C532.134644,623.073059 490.317413,623.215149 447.500183,623.355042  M606.961609,432.261566   C605.768738,412.991730 604.660767,393.716125 603.344543,374.454712   C602.751648,365.778656 602.542725,365.868896 594.257019,363.688873   C590.818359,362.784149 589.193420,363.527679 589.370422,367.375214   C589.699280,374.524567 589.946899,381.681915 590.007507,388.837799   C590.046997,393.498108 587.715637,395.707092 583.149536,395.222748   C573.728577,394.223480 564.346130,392.861694 554.926086,391.852539   C549.469421,391.267944 546.960083,388.392395 546.913879,383.027283   C546.862183,377.029022 546.697632,371.031738 546.638428,365.033478   C546.610413,362.193970 545.903992,360.135468 542.475464,360.138794   C533.310791,360.147736 524.145996,360.071625 514.981262,360.022552   C512.564758,360.009613 511.174896,361.028320 511.320129,363.609802   C511.658264,369.620880 510.606750,375.560242 510.404266,381.538574   C510.126312,389.746826 508.561829,391.433777 500.280487,392.285431   C488.539703,393.492920 476.809387,394.806732 465.082886,396.147369   C459.190216,396.821014 456.797607,394.839050 456.700256,388.678986   C456.594940,382.014618 456.711487,375.346863 456.629211,368.681854   C456.607880,366.954529 457.303955,364.972107 455.239014,363.395599   C450.766724,364.015717 446.608337,366.185303 442.223480,367.615265   C439.239166,368.588501 438.347717,370.530701 438.206146,373.628632   C437.697479,384.762756 436.890472,395.884094 436.129181,407.005676   C434.561615,429.906403 432.872559,452.799164 431.399078,475.705841   C430.864960,484.009216 431.082458,484.098816 439.723724,483.905029   C467.196869,483.288940 494.666321,482.476288 522.141724,482.003571   C541.135254,481.676849 560.136169,481.774658 579.133911,481.706665   C588.132874,481.674438 597.131958,481.706421 606.130981,481.690857   C608.348999,481.687042 610.751648,481.803650 610.498657,478.474792   C609.351501,463.381897 608.179443,448.290924 606.961609,432.261566  M618.667358,593.454773   C617.918091,582.685364 617.204468,571.913330 616.412048,561.147095   C614.898254,540.580994 613.232727,520.025391 611.854736,499.450439   C611.340515,491.772491 611.318054,491.386963 603.492126,491.459808   C579.021484,491.687622 554.551697,492.020477 530.080688,492.179291   C526.775879,492.200775 525.279846,493.007233 525.289185,496.643585   C525.385498,533.944580 525.375305,571.246094 525.312927,608.547241   C525.307556,611.759094 526.467407,613.013855 529.697815,612.968018   C558.330383,612.561523 586.972900,613.061584 615.599548,611.987549   C618.498352,611.878784 619.964844,610.881592 619.700928,607.819397   C619.315796,603.350891 619.020752,598.874695 618.667358,593.454773  M451.472107,613.639771   C460.462280,613.438843 469.452118,613.097351 478.442749,613.073608   C488.935394,613.045898 499.428925,613.282410 509.921661,613.432800   C513.286072,613.480957 515.870178,613.506653 515.842651,608.581482   C515.635986,571.593567 515.662720,534.603821 515.790100,497.615234   C515.804565,493.415466 514.411133,492.100006 510.316223,492.250427   C497.337860,492.727264 484.350464,492.998383 471.364258,493.210052   C459.703674,493.400208 448.039368,493.355286 436.378326,493.525970   C432.944397,493.576263 429.444702,493.960541 429.507141,498.740692   C429.664032,510.751129 428.057861,522.653198 427.327850,534.608765   C426.476654,548.549255 425.495270,562.481812 424.550537,576.416443   C423.807556,587.375244 423.100220,598.337219 422.235016,609.286560   C421.971405,612.623352 423.291901,613.696899 426.488831,613.649902   C434.484375,613.532349 442.483124,613.630676 451.472107,613.639771  M646.688110,651.695007   C646.076111,643.406799 645.327087,635.125427 644.914124,626.827271   C644.728027,623.087463 643.032349,622.026184 639.554932,622.078796   C625.729248,622.288086 611.898987,622.493896 598.074646,622.334900   C593.059082,622.277161 591.653748,624.377014 591.930908,628.941711   C592.445435,637.415039 592.952454,645.900696 593.045410,654.385742   C593.355652,682.700439 593.207947,711.018860 594.167236,739.328613   C594.320801,743.858459 595.846252,744.936340 600.055176,744.856873   C612.546448,744.621033 625.049011,744.962036 637.539185,744.698547   C654.921265,744.331848 652.257812,748.443115 651.401123,728.867188   C650.288452,703.440369 648.308228,678.051453 646.688110,651.695007  M502.931427,289.500000   C502.931427,270.948090 502.931427,252.396210 502.931427,232.811722   C491.584442,236.742218 481.820923,240.913651 471.157318,242.037537   C460.449280,243.166107 450.214966,239.358337 438.165283,239.086716   C444.458344,250.954605 441.095062,263.290741 443.671875,274.938171   C446.320374,275.438202 448.418732,274.214813 450.549011,273.460175   C460.260925,270.019562 469.906586,266.391754 479.619110,262.952850   C485.975342,260.702301 488.983459,263.177948 488.070709,269.782135   C483.543976,302.535400 478.884064,335.270935 474.561401,368.050964   C473.818054,373.688171 472.256165,379.342102 472.790314,385.734528   C482.077087,384.630554 490.947052,383.631775 499.797150,382.480530   C501.739746,382.227844 501.624603,380.401886 501.690643,378.896667   C502.026245,371.249512 502.591064,363.604553 502.660309,355.955048   C502.857697,334.137665 502.853882,312.318481 502.931427,289.500000  M554.249939,344.655640   C554.949768,356.103668 555.647095,367.551849 556.352539,378.999512   C556.434448,380.328796 556.381287,382.010345 558.106689,382.144714   C563.110779,382.534393 568.052917,384.755188 573.174072,383.141510   C573.286804,382.304321 573.472656,381.800568 573.400024,381.337402   C569.952087,359.347961 566.420410,337.371460 563.034424,315.372559   C560.532410,299.116577 558.161621,282.839783 555.845398,266.556152   C554.931213,260.129089 556.887573,258.395050 563.216980,259.481415   C575.175049,261.533936 587.130493,263.604858 599.108093,265.537598   C601.461609,265.917389 604.744568,266.683411 605.151917,263.098724   C606.119934,254.581116 609.471375,246.356689 607.999939,237.505112   C607.481506,234.386520 606.907715,233.240265 603.384277,233.850525   C595.044434,235.295074 586.631836,236.398178 578.210632,237.273331   C569.495422,238.179031 561.017944,236.265808 552.563538,234.387161   C550.959839,234.030823 548.684448,232.535400 547.771484,235.077652   C546.452515,238.750641 544.540344,242.118790 544.861938,246.487991   C545.874573,260.249054 547.987793,273.879364 549.224731,287.606049   C550.909790,306.306183 552.552917,325.010101 554.249939,344.655640  M512.159851,283.486176   C512.146851,285.980286 512.142395,288.474518 512.119019,290.968506   C512.064331,296.804810 512.637451,297.506470 518.658997,297.687683   C524.140503,297.852600 529.638489,297.578796 535.112976,297.839111   C539.622498,298.053528 541.265991,296.565826 540.935547,291.806854   C540.083862,279.542023 538.670471,267.347839 537.051758,255.175491   C535.919617,246.661636 535.768372,246.709991 527.425842,245.254745   C521.842468,244.280792 517.112427,240.994904 511.332977,238.824921   C510.839020,253.743622 512.027466,268.113525 512.159851,283.486176  M511.962677,327.483215   C512.396851,334.888031 510.746063,342.312439 511.707855,350.034180   C522.131287,350.034180 532.095032,350.006653 542.058472,350.049774   C545.356079,350.064056 545.999634,348.097473 545.635010,345.445892   C543.978699,333.399719 543.456177,321.263397 542.681519,309.147308   C542.511292,306.486267 541.292969,305.070007 538.540161,305.492615   C530.905701,306.664551 523.279663,306.482971 515.657837,305.442688   C512.402039,304.998291 511.691772,306.564606 511.807831,309.510712   C512.030457,315.163422 511.931915,320.828766 511.962677,327.483215  M532.912781,207.488617   C536.068787,207.034943 539.015869,208.144775 542.064636,209.100937   C542.564026,201.188110 540.862366,193.924683 539.542236,186.611816   C539.084778,184.077774 537.651855,182.912064 535.153076,182.732239   C528.223389,182.233536 521.660583,183.861008 515.172424,186.025635   C513.422302,186.609528 513.228577,188.111298 512.813965,189.536728   C511.202087,195.078400 509.577423,200.616394 507.905182,206.334702   C508.702179,207.040359 509.519043,207.869095 510.440704,208.557541   C512.302856,209.948502 514.351013,211.116653 516.086975,212.644287   C518.606873,214.861694 520.660706,214.548141 522.967834,212.289963   C525.500183,209.811295 528.593872,208.198593 532.912781,207.488617  M516.614258,159.082855   C516.186829,159.985886 515.742554,160.881363 515.334717,161.793182   C512.398254,168.358948 510.973633,168.665268 505.046326,164.247025   C503.427826,163.040543 502.183563,161.029282 499.603882,161.054733   C499.112518,165.227707 499.375580,169.586502 496.672577,172.682556   C492.973053,176.919968 489.156464,171.843063 484.936981,171.979370   C487.364105,176.796829 489.661316,181.356491 492.082397,186.162033   C494.330414,185.261124 496.325775,184.515228 498.278046,183.669815   C506.855316,179.955688 515.747437,177.280975 524.824524,175.060257   C529.046875,174.027237 534.873047,177.191513 537.236145,172.826828   C539.333252,168.953369 536.264526,163.795410 536.476624,159.123947   C536.483398,158.975250 536.031433,158.805725 535.792297,158.647430   C531.232666,165.099289 528.612549,165.041824 523.958496,158.479919   C522.644043,156.626617 521.696716,154.440704 519.636719,153.102463   C517.835938,154.525223 517.875122,156.723572 516.614258,159.082855  M519.416809,223.280655   C513.435364,222.801651 510.261139,217.107422 504.866974,215.292099   C507.621338,228.469269 518.275208,234.343475 528.750854,237.362091   C535.285522,239.245087 539.609863,235.899490 540.755005,229.115555   C541.058533,227.317581 541.502197,225.535919 541.688843,223.726883   C542.293945,217.864456 538.116516,214.351761 532.373901,215.838974   C530.064880,216.436996 528.118164,217.656982 526.474121,219.380737   C524.729553,221.209854 522.800110,222.747543 519.416809,223.280655  M403.784058,239.686386   C401.497559,240.512146 400.792847,241.732956 402.840179,243.592407   C404.317993,244.934586 405.926239,246.002548 407.839355,246.742233   C414.728119,249.405685 421.892151,248.598679 428.991821,248.637772   C431.587128,248.652069 431.723938,246.853836 431.735962,244.871384   C431.778351,237.881058 426.290863,236.234680 421.439087,233.829712   C419.366425,239.415192 419.260315,239.438416 413.474152,239.320847   C410.498077,239.260361 407.517761,239.407806 403.784058,239.686386  M486.730011,214.198242   C485.880249,220.272278 491.726898,225.021393 498.612701,223.581787   C498.347748,222.797440 498.247192,221.937927 497.814423,221.305893   C493.580048,215.121719 493.294708,209.514969 498.792664,203.554413   C501.774170,200.322021 503.519836,195.855103 502.954102,190.415283   C499.364685,193.070023 494.727997,193.608627 493.381775,197.817612   C491.652954,203.222748 488.994751,208.208862 486.730011,214.198242  M622.773315,241.809479   C630.647827,241.879776 638.994690,243.368988 644.689575,234.870728   C639.486145,232.279327 634.571106,233.472366 629.846558,233.236267   C626.433472,233.065720 623.253662,232.961090 622.081421,229.414047   C616.906555,230.247864 615.924927,233.241531 616.453796,237.512466   C616.883423,240.982071 618.758545,242.004639 622.773315,241.809479  z"
   id="path1" />
<path
   fill="#000000"
   opacity="1.000000"
   stroke="none"
   d=" M654.744873,196.968140   C642.073669,200.230026 629.910217,199.577408 617.968445,195.614777   C613.760559,194.218491 610.178528,194.127792 606.088257,196.334808   C598.624573,200.361984 590.789856,203.644226 582.455322,205.619446   C579.901917,206.224594 577.804016,206.291565 576.376709,203.853500   C575.063538,201.610504 576.020264,199.683228 577.594055,197.982697   C581.228149,194.055939 584.070679,189.580551 587.067078,185.167297   C590.200500,180.552216 589.257019,177.174408 586.212341,173.115158   C578.555969,162.907532 578.799377,145.492676 586.140381,135.009445   C594.525208,123.035698 606.394470,116.392097 620.129761,112.919884   C636.614197,108.752686 652.886047,109.995285 668.481201,116.913910   C684.994995,124.240097 697.044617,138.880402 696.233521,155.950577   C695.536865,170.612076 687.542603,180.663666 675.816040,188.361694   C669.476440,192.523422 662.465454,195.069565 654.744873,196.968140  M602.643127,129.144577   C585.970520,141.446960 583.538757,159.463348 596.696167,175.016434   C598.716248,177.404327 598.782166,179.159271 597.445251,181.650696   C595.276917,185.691467 593.313110,189.841965 590.899170,194.674347   C596.793152,192.578339 601.867920,190.603256 606.497925,187.689301   C609.593140,185.741302 612.472839,185.721191 615.932434,186.919052   C637.766479,194.479050 658.439209,192.161041 676.811768,177.808487   C692.653198,165.433258 692.292542,144.870377 678.246765,132.699661   C658.119751,115.259552 626.525513,113.842613 602.643127,129.144577  z"
   id="path2" />
<path
   fill="#000000"
   opacity="1.000000"
   stroke="none"
   d=" M742.631592,209.592499   C750.844360,208.629639 758.603149,207.658737 766.375671,206.815033   C768.931091,206.537643 771.748535,206.535431 772.070068,210.014023   C772.393982,213.519180 769.507935,213.955780 767.028503,214.208755   C739.072876,217.061264 711.351929,221.936737 683.295715,223.915924   C680.813293,224.091019 678.358093,223.986282 677.911865,220.919250   C677.463013,217.833832 679.639587,216.981461 682.226501,216.679123   C702.213379,214.343231 722.197754,211.985184 742.631592,209.592499  z"
   id="path3" />
<path
   fill="#000000"
   opacity="1.000000"
   stroke="none"
   d=" M330.434998,147.400116   C353.490479,156.634583 376.186584,165.719498 398.873413,174.827332   C400.414185,175.445877 401.859100,176.301758 403.395752,176.932281   C405.733124,177.891342 407.889038,179.270920 406.803406,182.053604   C405.624115,185.076309 402.794434,184.655396 400.377747,183.719360   C392.935425,180.836853 385.552246,177.801682 378.147003,174.823502   C359.785034,167.438858 341.426941,160.044495 323.055237,152.684158   C321.655518,152.123367 320.198303,151.697220 319.215210,150.481506   C318.250549,149.288651 317.450470,147.988449 318.258392,146.380753   C319.165070,144.576630 320.753845,144.230560 322.499512,144.743668   C325.049957,145.493301 327.551208,146.410309 330.434998,147.400116  z"
   id="path4" />
<path
   fill="#000000"
   opacity="1.000000"
   stroke="none"
   d=" M355.359314,257.299896   C360.287231,254.801559 364.869568,252.437057 369.508514,250.189362   C371.599457,249.176208 374.080597,247.857117 375.626678,250.716309   C377.238251,253.696686 374.886414,255.422455 372.695801,256.648712   C366.312653,260.221863 359.852081,263.659912 353.373047,267.057831   C338.510193,274.852600 323.621613,282.598358 308.733704,290.345245   C307.112823,291.188660 305.453857,291.971436 303.765991,292.669891   C302.008484,293.397186 300.468964,292.959290 299.410400,291.353668   C298.455597,289.905365 298.877838,288.507568 299.796844,287.183746   C300.684021,285.905762 301.968292,285.221985 303.320984,284.517700   C320.574707,275.534607 337.802460,266.501648 355.359314,257.299896  z"
   id="path5" />
<path
   fill="#000000"
   opacity="1.000000"
   stroke="none"
   d=" M312.712036,213.634537   C328.768738,212.669830 344.364594,211.718124 359.960175,210.762573   C363.442963,210.549179 366.922241,210.234192 370.408051,210.130615   C372.993622,210.053772 375.755646,210.355606 376.092041,213.620987   C376.414825,216.753922 373.856262,217.373947 371.444885,217.628967   C366.323425,218.170639 361.198181,218.758652 356.058746,219.032318   C340.292145,219.871841 324.518372,220.578201 308.746429,221.315109   C307.419708,221.377090 306.082367,221.330582 304.755615,221.246002   C302.673676,221.113251 301.213287,220.076569 301.099915,217.914551   C300.988434,215.788788 302.331299,214.345596 304.297058,214.060440   C306.913361,213.680939 309.596558,213.762604 312.712036,213.634537  z"
   id="path6" />
<path
   fill="#000000"
   opacity="1.000000"
   stroke="none"
   d=" M727.327026,267.756042   C712.711365,262.144379 698.416382,256.763397 684.189880,251.207275   C681.486694,250.151566 677.037598,249.577103 678.651794,245.177521   C680.256226,240.804520 684.055481,243.088348 686.792542,244.120453   C705.740051,251.265198 724.627808,258.568207 743.529724,265.833618   C744.768250,266.309723 745.979736,266.863831 747.177429,267.436737   C749.425659,268.512177 750.586853,270.270874 749.577881,272.684479   C748.585754,275.057953 746.477173,274.890320 744.468323,274.159943   C738.855713,272.119385 733.268677,270.008850 727.327026,267.756042  z"
   id="path7" />
<path
   fill="#000000"
   opacity="1.000000"
   stroke="none"
   d=" M692.300049,293.686615   C696.090698,296.954620 699.626465,299.972931 703.121216,303.037964   C705.128845,304.798706 705.885254,306.930145 703.988281,309.139587   C702.105225,311.332886 700.051819,310.347504 698.305603,308.811768   C687.319824,299.149780 676.360168,289.458038 665.415710,279.749237   C663.827148,278.340057 663.491882,276.615845 664.922852,274.897644   C666.484375,273.022705 668.443604,272.980225 670.211121,274.451508   C674.810852,278.280182 679.317505,282.221527 683.831909,286.151611   C686.591919,288.554413 689.297668,291.019470 692.300049,293.686615  z"
   id="path8" />
<path
   fill="#000000"
   opacity="1.000000"
   stroke="none"
   d=" M402.531738,144.467285   C398.987518,141.158997 395.677765,138.116653 392.421539,135.018066   C390.820068,133.494064 389.951050,131.630844 391.742645,129.794876   C393.335907,128.162140 395.594757,128.097137 397.199432,129.553192   C405.826843,137.381424 414.347900,145.328049 422.829376,153.314880   C424.514862,154.902069 424.674408,157.027267 422.837128,158.590866   C420.897156,160.241867 418.748871,159.707993 416.977722,158.062454   C412.219788,153.641907 407.514496,149.164734 402.531738,144.467285  z"
   id="path9" />
<path
   fill="#000000"
   opacity="1.000000"
   stroke="none"
   d=" M719.652466,178.610382   C725.901428,175.818161 731.773804,173.111938 737.698486,170.525772   C740.062988,169.493683 742.822632,168.710220 744.032043,171.895615   C745.150391,174.841049 742.966980,176.477600 740.521362,177.560074   C731.578247,181.518585 722.634094,185.475006 713.664429,189.372757   C711.161743,190.460297 708.207520,191.500504 706.751587,188.244202   C705.244202,184.873062 708.130676,183.642044 710.642090,182.544266   C713.529053,181.282318 716.412109,180.011490 719.652466,178.610382  z"
   id="path10" />
<path
   fill="#000000"
   opacity="1.000000"
   stroke="none"
   d=" M370.358582,289.331604   C372.769836,287.264862 374.820129,285.306305 377.079987,283.630371   C379.033752,282.181427 381.385376,281.251343 383.255676,283.645691   C384.997253,285.875183 383.554718,287.648346 381.802551,289.175568   C374.426086,295.604919 367.031250,302.013550 359.700439,308.494598   C357.763733,310.206787 355.832458,311.461792 353.755920,309.033173   C351.860931,306.816956 352.725616,304.614960 354.655823,302.909210   C359.751862,298.405762 364.938232,294.004517 370.358582,289.331604  z"
   id="path11" />
<path
   fill="#000000"
   opacity="1.000000"
   stroke="none"
   d=" M1012.248413,64.132240   C1009.745239,66.723793 1006.963562,65.849358 1006.130005,62.144455   C1005.440247,59.078678 1005.617188,55.943981 1006.400452,53.158707   C1008.589539,51.910080 1009.900574,53.570118 1011.471436,53.791225   C1013.639709,54.096436 1015.985840,54.484032 1016.440918,57.102928   C1016.887878,59.675034 1014.691833,60.333088 1012.859619,61.138302   C1011.513306,61.729969 1011.211914,62.667301 1012.248413,64.132240  z"
   id="path12"
   style="fill:#ffffff;fill-opacity:1" />
<path
   fill="#000000"
   opacity="1.000000"
   stroke="none"
   d=" M997.135864,630.923279   C991.589600,630.971680 986.336426,630.971680 981.083313,630.971680   C981.080566,630.715332 981.077820,630.459045 981.075073,630.202698   C986.561462,630.202698 992.047913,630.200867 997.534241,630.218079   C997.630493,630.218384 997.725952,630.448120 997.821777,630.570801   C997.690796,630.672180 997.559875,630.773499 997.135864,630.923279  z"
   id="path13"
   style="fill:#ffffff;fill-opacity:1" />
<path
   fill="#000000"
   opacity="1.000000"
   stroke="none"
   d=" M614.960693,148.842133   C620.257751,150.361343 622.402771,153.915451 620.880981,157.966644   C619.542664,161.529541 615.495544,163.009171 611.865662,161.414459   C608.864502,160.095947 608.578918,157.643951 608.690491,154.861572   C608.843018,151.057449 610.916870,149.214462 614.960693,148.842133  z"
   id="path14" />
<path
   fill="#000000"
   opacity="1.000000"
   stroke="none"
   d=" M664.200562,149.462585   C668.466187,151.858002 669.326721,155.124252 667.237915,158.905319   C665.742432,161.612411 662.994690,163.023422 660.025757,161.887665   C656.318970,160.469696 654.785461,157.313431 655.709351,153.394333   C656.751099,148.975662 659.933899,148.316467 664.200562,149.462585  z"
   id="path15" />
<path
   fill="#000000"
   opacity="1.000000"
   stroke="none"
   d=" M636.487061,161.766327   C631.077087,157.996170 630.516541,152.741409 634.943848,149.981064   C637.201538,148.573410 639.734619,148.164764 641.935852,149.908295   C644.059937,151.590668 645.893066,153.907852 644.903931,156.769058   C643.656250,160.378128 640.927185,162.371140 636.487061,161.766327  z"
   id="path16" />
</svg>
